<svg xmlns="http://www.w3.org/2000/svg" viewBox="0 -0.5 64 64" shape-rendering="crispEdges">
<metadata>Made with Pixels to Svg https://codepen.io/shshaw/pen/XbxvNj</metadata>
<path stroke="#000000" d="M13 7h6M50 7h3M11 8h2M19 8h2M48 8h2M53 8h2M10 9h1M21 9h1M47 9h1M55 9h1M9 10h1M22 10h1M47 10h1M55 10h1M8 11h1M23 11h1M46 11h1M56 11h1M7 12h1M24 12h1M46 12h1M56 12h1M7 13h1M12 13h3M18 13h3M24 13h1M46 13h1M52 13h1M55 13h2M6 14h1M11 14h1M15 14h1M17 14h1M21 14h1M25 14h1M45 14h1M51 14h1M53 14h2M56 14h2M6 15h1M11 15h1M13 15h1M15 15h1M17 15h1M19 15h1M21 15h1M25 15h1M45 15h1M51 15h7M6 16h1M11 16h1M15 16h1M17 16h1M21 16h1M25 16h1M45 16h1M51 16h1M53 16h2M56 16h2M6 17h1M12 17h3M16 17h5M25 17h1M45 17h1M52 17h1M54 17h4M6 18h1M15 18h1M18 18h1M25 18h1M45 18h1M53 18h1M57 18h1M6 19h1M15 19h1M18 19h1M25 19h1M45 19h1M53 19h1M57 19h1M6 20h1M16 20h2M25 20h1M45 20h1M54 20h4M7 21h1M24 21h1M46 21h1M56 21h1M7 22h1M24 22h1M46 22h1M56 22h1M8 23h1M23 23h1M46 23h1M56 23h1M9 24h1M22 24h1M47 24h1M55 24h1M10 25h1M21 25h1M47 25h1M55 25h1M11 26h2M19 26h2M48 26h2M53 26h2M13 27h6M50 27h3M13 39h6M43 39h3M11 40h2M19 40h2M41 40h2M46 40h2M10 41h1M21 41h1M40 41h1M48 41h1M9 42h1M22 42h1M40 42h1M48 42h1M8 43h1M23 43h1M39 43h1M49 43h1M7 44h1M24 44h1M39 44h1M49 44h1M7 45h1M24 45h1M39 45h2M43 45h1M49 45h1M6 46h1M25 46h1M38 46h2M41 46h2M44 46h1M50 46h1M6 47h1M25 47h1M38 47h7M50 47h1M6 48h1M25 48h1M38 48h2M41 48h2M44 48h1M50 48h1M6 49h1M25 49h1M38 49h4M43 49h1M50 49h1M6 50h1M25 50h1M38 50h1M42 50h1M50 50h1M6 51h1M25 51h1M38 51h1M42 51h1M50 51h1M6 52h1M25 52h1M38 52h4M50 52h1M7 53h1M24 53h1M39 53h1M49 53h1M7 54h1M24 54h1M39 54h1M49 54h1M8 55h1M23 55h1M39 55h1M49 55h1M9 56h1M22 56h1M40 56h1M48 56h1M10 57h1M21 57h1M40 57h1M48 57h1M11 58h2M19 58h2M41 58h2M46 58h2M13 59h6M43 59h3" />
<path stroke="#158ddb" d="M13 8h6M50 8h3M11 9h10M48 9h7M10 10h12M48 10h7M9 11h14M47 11h9M8 12h16M47 12h9M8 13h4M15 13h3M21 13h3M47 13h5M53 13h2M7 14h4M16 14h1M22 14h3M46 14h5M7 15h4M16 15h1M22 15h3M46 15h5M7 16h4M16 16h1M22 16h3M46 16h5M7 17h5M15 17h1M21 17h4M46 17h6M53 17h1M7 18h8M19 18h6M47 18h6M8 19h7M19 19h6M47 19h6M8 20h8M18 20h7M47 20h7M9 21h15M48 21h8M10 22h14M48 22h8M11 23h12M49 23h7M12 24h10M49 24h6M14 25h7M51 25h4M13 40h6M43 40h3M11 41h10M41 41h7M10 42h12M41 42h7M9 43h14M40 43h9M8 44h16M40 44h9M8 45h16M41 45h2M44 45h5M7 46h18M45 46h5M7 47h18M45 47h5M7 48h18M45 48h5M7 49h18M42 49h1M44 49h6M7 50h18M43 50h7M8 51h17M43 51h7M8 52h17M42 52h8M9 53h15M40 53h9M10 54h14M41 54h8M11 55h12M41 55h8M12 56h10M42 56h6M14 57h7M43 57h5" />
<path stroke="#fff6f6" d="M12 14h3M18 14h3M52 14h1M55 14h1M12 15h1M14 15h1M18 15h1M20 15h1M12 16h3M18 16h3M52 16h1M55 16h1M40 46h1M43 46h1M40 48h1M43 48h1" />
<path stroke="#00f4ff" d="M16 18h2M54 18h3M16 19h2M54 19h3M39 50h3M39 51h3" />
<path stroke="#0c5a85" d="M46 18h1M7 19h1M46 19h1M7 20h1M46 20h1M8 21h1M47 21h1M8 22h2M47 22h1M9 23h2M47 23h2M10 24h2M48 24h1M11 25h3M48 25h3M13 26h6M50 26h3M7 51h1M7 52h1M8 53h1M8 54h2M40 54h1M9 55h2M40 55h1M10 56h2M41 56h1M11 57h3M41 57h2M13 58h6M43 58h3" />
</svg>