<svg xmlns="http://www.w3.org/2000/svg" viewBox="0 0 32 32" shape-rendering="crispEdges">
<metadata>Made with Pixels to Svg https://codepen.io/shshaw/pen/XbxvNj</metadata>
<path stroke="#5638d4" d="M11 3h10M10 4h12M9 5h9M19 5h1M21 5h1M8 6h11M22 6h2M8 8h11M22 8h2M8 9h10M19 9h1M21 9h1M23 9h1M8 10h2M22 10h2" />
<path stroke="#ecebcb" d="M18 5h1M20 5h1M22 5h1M19 6h3M18 7h2M21 7h2M19 8h3M18 9h1M20 9h1M22 9h1" />
<path stroke="#6af4e1" d="M8 7h10M23 7h1" />
<path stroke="#fff700" d="M20 7h1" />
</svg>
