<svg xmlns="http://www.w3.org/2000/svg" viewBox="0 -0.5 62 30" shape-rendering="crispEdges">
<metadata>Made with Pixels to Svg https://codepen.io/shshaw/pen/XbxvNj</metadata>
<path stroke="#000000" d="M23 1h2M39 1h2M13 2h3M22 2h1M24 2h3M37 2h3M41 2h1M12 3h1M16 3h1M22 3h1M24 3h1M26 3h2M36 3h2M39 3h1M41 3h1M12 4h1M14 4h1M16 4h1M23 4h2M27 4h1M36 4h1M39 4h2M10 5h3M16 5h1M27 5h2M35 5h2M9 6h1M13 6h3M27 6h2M35 6h2M9 7h1M27 7h10M49 7h6M8 8h3M26 8h3M35 8h3M47 8h2M55 8h2M7 9h6M26 9h1M37 9h1M46 9h1M57 9h1M5 10h2M13 10h2M25 10h1M38 10h1M45 10h1M58 10h1M3 11h2M15 11h2M24 11h1M39 11h1M44 11h1M59 11h1M2 12h1M17 12h1M23 12h1M40 12h1M44 12h1M59 12h1M2 13h1M17 13h1M23 13h1M28 13h3M34 13h3M40 13h1M43 13h1M49 13h3M55 13h3M60 13h1M1 14h1M18 14h1M22 14h1M27 14h1M31 14h1M33 14h1M37 14h1M41 14h1M43 14h1M48 14h1M52 14h1M54 14h1M58 14h1M60 14h1M1 15h1M18 15h1M22 15h1M27 15h1M29 15h1M31 15h1M33 15h1M35 15h1M37 15h1M41 15h1M43 15h1M48 15h1M50 15h1M52 15h1M54 15h1M56 15h1M58 15h1M60 15h1M0 16h1M7 16h3M13 16h3M19 16h1M22 16h1M27 16h1M31 16h1M33 16h1M37 16h1M41 16h1M43 16h1M48 16h1M52 16h1M54 16h1M58 16h1M60 16h1M0 17h1M6 17h1M10 17h1M12 17h1M16 17h1M19 17h1M22 17h1M28 17h3M32 17h5M41 17h1M43 17h1M49 17h3M53 17h1M55 17h3M60 17h1M0 18h1M6 18h2M10 18h1M12 18h2M16 18h1M19 18h1M22 18h1M31 18h1M34 18h1M41 18h1M43 18h1M52 18h1M60 18h1M0 19h1M6 19h1M10 19h1M12 19h1M16 19h1M19 19h1M22 19h1M31 19h1M34 19h1M41 19h1M43 19h1M52 19h1M55 19h1M60 19h1M0 20h1M7 20h3M11 20h5M19 20h1M22 20h1M32 20h2M41 20h1M44 20h1M53 20h2M59 20h1M0 21h1M10 21h1M13 21h1M19 21h1M23 21h1M40 21h1M44 21h1M59 21h1M1 22h1M10 22h1M13 22h1M18 22h1M23 22h1M40 22h1M45 22h1M58 22h1M1 23h1M11 23h2M18 23h1M24 23h1M39 23h1M46 23h1M57 23h1M2 24h1M17 24h1M25 24h1M38 24h1M47 24h2M55 24h2M2 25h1M17 25h1M26 25h1M37 25h1M49 25h6M3 26h2M15 26h2M27 26h2M35 26h2M5 27h2M13 27h2M29 27h6M7 28h6" />
<path stroke="#fff6f6" d="M13 3h3M13 4h1M15 4h1M13 5h3M28 14h3M34 14h3M49 14h3M55 14h3M28 15h1M30 15h1M34 15h1M36 15h1M49 15h1M51 15h1M55 15h1M57 15h1M28 16h3M34 16h3M49 16h3M55 16h3M7 17h3M13 17h3M8 18h2M14 18h2M7 19h3M13 19h3" />
<path stroke="#158ddb" d="M29 8h6M27 9h10M26 10h12M25 11h14M24 12h16M24 13h4M31 13h3M37 13h3M23 14h4M32 14h1M38 14h3M23 15h4M32 15h1M38 15h3M23 16h4M32 16h1M38 16h3M23 17h5M31 17h1M37 17h4M23 18h8M35 18h6M24 19h7M35 19h6M25 20h7M34 20h7M25 21h15M26 22h14M27 23h12M28 24h10M30 25h7" />
<path stroke="#7538df" d="M49 8h6M47 9h10M46 10h12M45 11h3M52 11h3M58 11h1M45 12h2M48 12h4M53 12h1M55 12h3M44 13h1M47 13h2M52 13h1M54 13h1M58 13h1M45 14h1M47 14h1M45 15h1M47 15h1M44 16h2M47 16h1M44 17h3M48 17h1M59 17h1M45 18h3M58 18h2M46 19h6M56 19h4M46 20h7M55 20h4M47 21h12M48 22h10M50 23h7" />
<path stroke="#1ba125" d="M7 10h6M5 11h10M3 12h14M3 13h14M2 14h16M2 15h16M1 16h6M10 16h3M16 16h3M1 17h5M11 17h1M17 17h2M1 18h5M11 18h1M17 18h2M2 19h4M11 19h1M17 19h2M2 20h5M10 20h1M16 20h3M3 21h7M14 21h5M3 22h7M14 22h4M4 23h7M13 23h5M4 24h13M6 25h11M7 26h8" />
<path stroke="#471313" d="M48 11h4M55 11h3M47 12h1M52 12h1M54 12h1M58 12h1M45 13h2M53 13h1M59 13h1M44 14h1M46 14h1M53 14h1M59 14h1M44 15h1M46 15h1M53 15h1M59 15h1M46 16h1M53 16h1M59 16h1M47 17h1M52 17h1M54 17h1M58 17h1M48 18h4M55 18h3" />
<path stroke="#00f4ff" d="M32 18h2M32 19h2" />
<path stroke="#412d65" d="M44 18h1M44 19h2M45 20h1M45 21h2M46 22h2M47 23h3M49 24h6" />
<path stroke="#c09cff" d="M53 18h2M53 19h2" />
<path stroke="#14631a" d="M1 19h1M1 20h1M1 21h2M2 22h1M2 23h2M3 24h1M3 25h3M5 26h2M7 27h6" />
<path stroke="#0c5a85" d="M23 19h1M23 20h2M24 21h1M24 22h2M25 23h2M26 24h2M27 25h3M29 26h6" />
<path stroke="#4ee359" d="M11 21h2M11 22h2" />
</svg>
