<svg xmlns="http://www.w3.org/2000/svg" viewBox="-2 2 30 30" shape-rendering="crispEdges">
<metadata>Made with Pixels to Svg https://codepen.io/shshaw/pen/XbxvNj</metadata>
<path stroke="#000000" d="M13 7h6M11 8h2M19 8h2M10 9h1M21 9h1M9 10h1M22 10h1M8 11h1M23 11h1M7 12h1M24 12h1M7 13h1M12 13h3M18 13h3M24 13h1M6 14h1M11 14h1M15 14h1M17 14h1M21 14h1M25 14h1M6 15h1M11 15h1M13 15h1M15 15h1M17 15h1M19 15h1M21 15h1M25 15h1M6 16h1M11 16h1M15 16h1M17 16h1M21 16h1M25 16h1M6 17h1M12 17h3M16 17h5M25 17h1M6 18h1M15 18h1M18 18h1M25 18h1M6 19h1M15 19h1M18 19h1M25 19h1M6 20h1M16 20h2M25 20h1M7 21h1M24 21h1M7 22h1M24 22h1M8 23h1M23 23h1M9 24h1M22 24h1M10 25h1M21 25h1M11 26h2M19 26h2M13 27h6" />
<path stroke="#854ad9" d="M13 8h6M11 9h10M10 10h12M9 11h14M8 12h16M8 13h4M15 13h3M21 13h3M7 14h4M16 14h1M22 14h3M7 15h4M16 15h1M22 15h3M7 16h4M16 16h1M22 16h3M7 17h5M15 17h1M21 17h4M7 18h8M19 18h6M8 19h7M19 19h6M8 20h8M18 20h7M9 21h15M10 22h14M11 23h12M12 24h10M14 25h7" />
<path stroke="#fff6f6" d="M12 14h3M18 14h3M12 15h1M14 15h1M18 15h1M20 15h1M12 16h3M18 16h3" />
<path stroke="#a100ff" d="M16 18h2M16 19h2" />
<path stroke="#4f169f" d="M7 19h1M7 20h1M8 21h1M8 22h2M9 23h2M10 24h2M11 25h3M13 26h6" />
</svg>
