<svg xmlns="http://www.w3.org/2000/svg" viewBox="0 -0.5 64 32" shape-rendering="crispEdges">
<metadata>Made with Pixels to Svg https://codepen.io/shshaw/pen/XbxvNj</metadata>
<path stroke="#e1bf0f" d="M17 22h1M19 22h1M49 22h1M51 22h1M18 23h1M50 23h1M11 24h1M13 24h1M17 24h1M19 24h1M43 24h1M45 24h1M49 24h1M51 24h1M12 25h1M21 25h1M23 25h1M44 25h1M53 25h1M55 25h1M11 26h1M13 26h1M22 26h1M25 26h1M27 26h1M43 26h1M45 26h1M54 26h1M57 26h1M59 26h1M21 27h1M23 27h1M26 27h1M53 27h1M55 27h1M58 27h1M25 28h1M27 28h1M57 28h1M59 28h1M12 29h1M14 29h1M44 29h1M46 29h1M13 30h1M45 30h1M12 31h1M14 31h1M44 31h1M46 31h1" />
<path stroke="#ecd86f" d="M8 23h1M40 23h1M7 24h1M9 24h1M39 24h1M41 24h1M8 25h1M40 25h1M16 26h1M48 26h1M15 27h1M17 27h1M47 27h1M49 27h1M9 28h1M16 28h1M19 28h1M41 28h1M48 28h1M51 28h1M8 29h1M10 29h1M18 29h1M20 29h1M23 29h1M40 29h1M42 29h1M50 29h1M52 29h1M55 29h1M9 30h1M19 30h1M22 30h1M24 30h1M41 30h1M51 30h1M54 30h1M56 30h1M23 31h1M55 31h1" />
</svg>
