<svg xmlns="http://www.w3.org/2000/svg" viewBox="0 -0.5 30 18" shape-rendering="crispEdges">
<metadata>Made with Pixels to Svg https://codepen.io/shshaw/pen/XbxvNj</metadata>
<path stroke="#222121" d="M0 0h3M6 0h3M12 0h3M18 0h3M24 0h3M0 1h3M6 1h3M12 1h3M18 1h3M24 1h3M0 2h3M6 2h3M12 2h3M18 2h3M24 2h3M3 3h3M9 3h3M15 3h3M21 3h3M27 3h3M3 4h3M9 4h3M15 4h3M21 4h3M27 4h3M3 5h3M9 5h3M15 5h3M21 5h3M27 5h3M0 6h3M6 6h3M12 6h3M18 6h3M24 6h3M0 7h3M6 7h3M12 7h3M18 7h3M24 7h3M0 8h3M6 8h3M12 8h3M18 8h3M24 8h3M3 9h3M9 9h3M15 9h3M21 9h3M27 9h3M3 10h3M9 10h3M15 10h3M21 10h3M27 10h3M3 11h3M9 11h3M15 11h3M21 11h3M27 11h3M0 12h3M6 12h3M12 12h3M18 12h3M24 12h3M0 13h3M6 13h3M12 13h3M18 13h3M24 13h3M0 14h3M6 14h3M12 14h3M18 14h3M24 14h3M3 15h3M9 15h3M15 15h3M21 15h3M27 15h3M3 16h3M9 16h3M15 16h3M21 16h3M27 16h3M3 17h3M9 17h3M15 17h3M21 17h3M27 17h3" />
<path stroke="#898cdb" d="M3 0h3M9 0h3M15 0h3M21 0h3M27 0h3M3 1h3M9 1h3M15 1h3M21 1h3M27 1h3M3 2h3M9 2h3M15 2h3M21 2h3M27 2h3M0 3h3M6 3h3M12 3h3M18 3h3M24 3h3M0 4h3M6 4h3M12 4h3M18 4h3M24 4h3M0 5h3M6 5h3M12 5h3M18 5h3M24 5h3M3 6h3M9 6h3M15 6h3M21 6h3M27 6h3M3 7h3M9 7h3M15 7h3M21 7h3M27 7h3M3 8h3M9 8h3M15 8h3M21 8h3M27 8h3M0 9h3M6 9h3M12 9h3M18 9h3M24 9h3M0 10h3M6 10h3M12 10h3M18 10h3M24 10h3M0 11h3M6 11h3M12 11h3M18 11h3M24 11h3M3 12h3M9 12h3M15 12h3M21 12h3M27 12h3M3 13h3M9 13h3M15 13h3M21 13h3M27 13h3M3 14h3M9 14h3M15 14h3M21 14h3M27 14h3M0 15h3M6 15h3M12 15h3M18 15h3M24 15h3M0 16h3M6 16h3M12 16h3M18 16h3M24 16h3M0 17h3M6 17h3M12 17h3M18 17h3M24 17h3" />
</svg>