<svg xmlns="http://www.w3.org/2000/svg" viewBox="0 -0.5 45 48" shape-rendering="crispEdges">
<metadata>Made with Pixels to Svg https://codepen.io/shshaw/pen/XbxvNj</metadata>
<path stroke="#6db8ff" d="M0 0h6M0 1h6M0 2h6M0 3h9M0 4h9M0 5h9" />
<path stroke="#8b47ff" d="M15 0h15M15 1h15M15 2h15" />
<path stroke="#ff47a8" d="M30 0h9M30 1h9M30 2h9M36 3h3M36 4h3M36 5h3M36 6h3M36 7h3M36 8h3" />
<path stroke="#93ff47" d="M0 12h12M0 13h12M0 14h12M3 15h3M3 16h3M3 17h3" />
<path stroke="#0c3689" d="M21 12h3M21 13h3M21 14h3M15 15h9M15 16h9M15 17h9M15 18h3M15 19h3M15 20h3" />
<path stroke="#f2e109" d="M30 12h3M30 13h3M30 14h3M30 15h3M30 16h3M30 17h3M30 18h6M30 19h6M30 20h6M33 21h3" />
<path stroke="#ff9200" d="M0 24h3M0 25h3M0 26h3M0 27h6M0 28h6M0 29h6M3 30h6M3 31h6M3 32h6" />
<path stroke="#ce3d3d" d="M18 24h3M18 25h3M18 26h3M18 27h3M18 28h3M18 29h3M15 30h9M15 31h9M15 32h9" />
<path stroke="#6d1c4a" d="M30 24h9M30 25h9M30 26h9M30 27h3M36 27h3M30 28h3M36 28h3M30 29h3M36 29h3" />
<path stroke="#6c4a94" d="M0 36h3M0 37h3M0 38h3M0 39h3M0 40h3M0 41h3M0 42h3M0 43h3M0 44h3M0 45h6M0 46h6M0 47h6" />
<path stroke="#279f5f" d="M18 36h3M18 37h3M18 38h3M15 39h9M15 40h9M15 41h9M18 42h3M18 43h3M18 44h3" />
<path stroke="#00ffff" d="M33 36h3M33 37h3M33 38h3M33 39h6M33 40h6M33 41h6M30 42h6M30 43h6M30 44h6" />
</svg>