<svg xmlns="http://www.w3.org/2000/svg" viewBox="0 2 30 30" shape-rendering="crispEdges">
<metadata>Made with Pixels to Svg https://codepen.io/shshaw/pen/XbxvNj</metadata>
<path stroke="#000000" d="M16 4h1M5 5h1M15 5h1M17 5h1M4 6h1M6 6h1M14 6h1M17 6h1M4 7h1M7 7h1M10 7h2M13 7h1M17 7h1M4 8h1M8 8h2M12 8h1M17 8h1M4 9h1M8 9h2M12 9h2M17 9h1M4 10h1M8 10h1M10 10h2M14 10h1M16 10h1M5 11h1M7 11h1M15 11h1M6 12h1" />
<path stroke="#87f6e2" d="M16 5h1M5 6h1M15 6h2M5 7h2M14 7h3M5 8h3M10 8h2M13 8h4M6 9h2M11 9h1M15 9h2M6 10h1" />
<path stroke="#66b2a5" d="M5 9h1M10 9h1M14 9h1M5 10h1M15 10h1M6 11h1" />
<path stroke="#78d4c4" d="M7 10h1" />
</svg>
