<svg xmlns="http://www.w3.org/2000/svg" viewBox="0 2 32 32" shape-rendering="crispEdges">
<metadata>Made with Pixels to Svg https://codepen.io/shshaw/pen/XbxvNj</metadata>
<path stroke="#000000" d="M12 11h3M18 11h3M11 12h1M15 12h1M17 12h1M21 12h1M10 13h1M16 13h1M22 13h1M10 14h1M16 14h1M22 14h1M10 15h1M16 15h1M22 15h1M10 16h1M16 16h1M22 16h1M11 17h1M15 17h1M17 17h1M21 17h1M12 18h3M18 18h3" />
<path stroke="rgba(88,76,67,0.7490196078431373)" d="M12 12h3M18 12h3M11 13h5M17 13h5M11 14h5M17 14h5M11 15h5M17 15h5M11 16h5M17 16h5M12 17h3M18 17h3" />
<path stroke="#090909" d="M9 13h1M8 14h1M23 14h1M7 15h1M24 15h1" />
</svg>
